# xmcd
# Copyright (c) 1998 CDDB Inc.
#
# Track frame offsets:
#	150
#	11742
#	27685
#	43417
#	57335
#	69891
#	86598
#	103115
#	116084
#	134472
#	145833
#
# Disc length: 2157 seconds
#
# Revision: 0
# Processed by: cddbd v1.4PL0 Copyright (c) Steve Scherf et al.
# Submitted via: audiograbber 1.70
#
DISCID=a2086b0b
DTITLE=Patrick Murphy - Patrick Murphy
DYEAR=1900
DGENRE=
TTITLE0=Girls Like Her and Men Like Me
TTITLE1=The Rest of Forever
TTITLE2=Drivin' My Life Away
TTITLE3=Til You Love Me Again
TTITLE4=Heaven on Earth
TTITLE5=Memories of You
TTITLE6=Seemed Like the Thing to do at the Time
TTITLE7=Strong Weakness
TTITLE8=You
TTITLE9=Texas Music
TTITLE10=Don't Call Me
EXTD=
EXTT0=
EXTT1=
EXTT2=
EXTT3=
EXTT4=
EXTT5=
EXTT6=
EXTT7=
EXTT8=
EXTT9=
EXTT10=
PLAYORDER=
